<svg width="106" height="21" viewBox="0 0 106 21" fill="none" xmlns="http://www.w3.org/2000/svg">
<path d="M5.82955 8.45455C5.77841 8.02273 5.57102 7.6875 5.20739 7.44886C4.84375 7.21023 4.39773 7.09091 3.86932 7.09091C3.48295 7.09091 3.14489 7.15341 2.85511 7.27841C2.56818 7.40341 2.34375 7.57528 2.18182 7.79403C2.02273 8.01278 1.94318 8.26136 1.94318 8.53977C1.94318 8.77273 1.99858 8.97301 2.10938 9.14062C2.22301 9.3054 2.3679 9.44318 2.54403 9.55398C2.72017 9.66193 2.90483 9.75142 3.09801 9.82244C3.29119 9.89062 3.46875 9.94602 3.63068 9.98864L4.51705 10.2273C4.74432 10.2869 4.99716 10.3693 5.27557 10.4744C5.55682 10.5795 5.82528 10.723 6.08097 10.9048C6.33949 11.0838 6.55256 11.3139 6.72017 11.5952C6.88778 11.8764 6.97159 12.2216 6.97159 12.6307C6.97159 13.1023 6.84801 13.5284 6.60085 13.9091C6.35653 14.2898 5.99858 14.5923 5.52699 14.8168C5.05824 15.0412 4.48864 15.1534 3.81818 15.1534C3.19318 15.1534 2.65199 15.0526 2.1946 14.8509C1.74006 14.6491 1.3821 14.3679 1.12074 14.0071C0.862216 13.6463 0.715909 13.2273 0.681818 12.75H1.77273C1.80114 13.0795 1.91193 13.3523 2.10511 13.5682C2.30114 13.7812 2.5483 13.9403 2.84659 14.0455C3.14773 14.1477 3.47159 14.1989 3.81818 14.1989C4.22159 14.1989 4.58381 14.1335 4.90483 14.0028C5.22585 13.8693 5.48011 13.6847 5.66761 13.4489C5.85511 13.2102 5.94886 12.9318 5.94886 12.6136C5.94886 12.3239 5.8679 12.0881 5.70597 11.9062C5.54403 11.7244 5.33097 11.5767 5.06676 11.4631C4.80256 11.3494 4.51705 11.25 4.21023 11.1648L3.13636 10.858C2.45455 10.6619 1.91477 10.3821 1.51705 10.0185C1.11932 9.65483 0.920455 9.17898 0.920455 8.59091C0.920455 8.10227 1.05256 7.67614 1.31676 7.3125C1.58381 6.94602 1.94176 6.66193 2.39062 6.46023C2.84233 6.25568 3.34659 6.15341 3.90341 6.15341C4.46591 6.15341 4.96591 6.25426 5.40341 6.45597C5.84091 6.65483 6.1875 6.92756 6.44318 7.27415C6.7017 7.62074 6.83807 8.0142 6.85227 8.45455H5.82955Z" fill="#FFF9F9"/>
<path d="M31.0568 15V6.27273H32.1136V14.0625H36.1705V15H31.0568Z" fill="#FFF9F9"/>
<path d="M45.4148 15H44.3068L47.5114 6.27273H48.6023L51.8068 15H50.6989L48.0909 7.65341H48.0227L45.4148 15ZM45.8239 11.5909H50.2898V12.5284H45.8239V11.5909Z" fill="#FFF9F9"/>
<path d="M62.9773 6.27273V15H61.9545L57.1989 8.14773H57.1136V15H56.0568V6.27273H57.0795L61.8523 13.142H61.9375V6.27273H62.9773Z" fill="#FFF9F9"/>
<path d="M70.75 15H68.0568V6.27273H70.8693C71.7159 6.27273 72.4403 6.44744 73.0426 6.79688C73.6449 7.14347 74.1065 7.64205 74.4276 8.29261C74.7486 8.94034 74.9091 9.71591 74.9091 10.6193C74.9091 11.5284 74.7472 12.3111 74.4233 12.9673C74.0994 13.6207 73.6278 14.1236 73.0085 14.4759C72.3892 14.8253 71.6364 15 70.75 15ZM69.1136 14.0625H70.6818C71.4034 14.0625 72.0014 13.9233 72.4759 13.6449C72.9503 13.3665 73.304 12.9702 73.5369 12.456C73.7699 11.9418 73.8864 11.3295 73.8864 10.6193C73.8864 9.91477 73.7713 9.30824 73.5412 8.79972C73.3111 8.28835 72.9673 7.89631 72.5099 7.62358C72.0526 7.34801 71.483 7.21023 70.8011 7.21023H69.1136V14.0625Z" fill="#FFF9F9"/>
<path d="M80.1136 6.27273V15H79.0568V6.27273H80.1136Z" fill="#FFF9F9"/>
<path d="M91.9773 6.27273V15H90.9545L86.1989 8.14773H86.1136V15H85.0568V6.27273H86.0795L90.8523 13.142H90.9375V6.27273H91.9773Z" fill="#FFF9F9"/>
<path d="M104.42 10.6364C104.42 11.5568 104.254 12.3523 103.922 13.0227C103.589 13.6932 103.134 14.2102 102.554 14.5739C101.974 14.9375 101.313 15.1193 100.568 15.1193C99.8239 15.1193 99.1619 14.9375 98.5824 14.5739C98.0028 14.2102 97.5469 13.6932 97.2145 13.0227C96.8821 12.3523 96.7159 11.5568 96.7159 10.6364C96.7159 9.71591 96.8821 8.92045 97.2145 8.25C97.5469 7.57955 98.0028 7.0625 98.5824 6.69886C99.1619 6.33523 99.8239 6.15341 100.568 6.15341C101.313 6.15341 101.974 6.33523 102.554 6.69886C103.134 7.0625 103.589 7.57955 103.922 8.25C104.254 8.92045 104.42 9.71591 104.42 10.6364ZM103.398 10.6364C103.398 9.88068 103.271 9.2429 103.018 8.72301C102.768 8.20312 102.429 7.80966 102 7.54261C101.574 7.27557 101.097 7.14205 100.568 7.14205C100.04 7.14205 99.5611 7.27557 99.1321 7.54261C98.706 7.80966 98.3665 8.20312 98.1136 8.72301C97.8636 9.2429 97.7386 9.88068 97.7386 10.6364C97.7386 11.392 97.8636 12.0298 98.1136 12.5497C98.3665 13.0696 98.706 13.4631 99.1321 13.7301C99.5611 13.9972 100.04 14.1307 100.568 14.1307C101.097 14.1307 101.574 13.9972 102 13.7301C102.429 13.4631 102.768 13.0696 103.018 12.5497C103.271 12.0298 103.398 11.392 103.398 10.6364Z" fill="#FFF9F9"/>
<circle cx="18.9513" cy="10.6497" r="4.17868" stroke="#FCFCFC" stroke-width="0.689267"/>
<path d="M9 10.7503H13.9254" stroke="#FCFCFC" stroke-width="0.689267" stroke-linecap="round" stroke-linejoin="round"/>
<path d="M23.7761 10.6497H28.2994" stroke="#FCFCFC" stroke-width="0.689267" stroke-linecap="round" stroke-linejoin="round"/>
<path d="M23.4745 8.7399L25.5854 7.73471" stroke="#FCFCFC" stroke-width="0.689267" stroke-linecap="round" stroke-linejoin="round"/>
<path d="M22.2684 7.23212L25.5855 3.81451" stroke="#FCFCFC" stroke-width="0.689267" stroke-linecap="round" stroke-linejoin="round"/>
<path d="M20.6602 5.92539L21.5648 3.81451" stroke="#FCFCFC" stroke-width="0.689267" stroke-linecap="round" stroke-linejoin="round"/>
<path d="M18.7502 5.62383V1" stroke="#FCFCFC" stroke-width="0.689267" stroke-linecap="round" stroke-linejoin="round"/>
<path d="M16.8404 6.0259L15.9357 3.91502" stroke="#FCFCFC" stroke-width="0.689267" stroke-linecap="round" stroke-linejoin="round"/>
<path d="M15.5337 7.33264L12.0156 3.81451" stroke="#FCFCFC" stroke-width="0.689267" stroke-linecap="round" stroke-linejoin="round"/>
<path d="M14.227 8.94093L12.0156 7.83523" stroke="#FCFCFC" stroke-width="0.689267" stroke-linecap="round" stroke-linejoin="round"/>
<path d="M14.2269 12.5596L12.2166 13.5648" stroke="#FCFCFC" stroke-width="0.689267" stroke-linecap="round" stroke-linejoin="round"/>
<path d="M15.3327 14.1679L12.0156 17.3844" stroke="#FCFCFC" stroke-width="0.689267" stroke-linecap="round" stroke-linejoin="round"/>
<path d="M17.142 15.2736L16.1368 17.485" stroke="#FCFCFC" stroke-width="0.689267" stroke-linecap="round" stroke-linejoin="round"/>
<path d="M18.8508 15.5751V20.199" stroke="#FCFCFC" stroke-width="0.689267" stroke-linecap="round" stroke-linejoin="round"/>
<path d="M20.7606 15.2736L21.7658 17.5855" stroke="#FCFCFC" stroke-width="0.689267" stroke-linecap="round" stroke-linejoin="round"/>
<path d="M22.3689 14.1679L25.5855 17.3844" stroke="#FCFCFC" stroke-width="0.689267" stroke-linecap="round" stroke-linejoin="round"/>
<path d="M23.3741 12.3585L25.6861 13.3637" stroke="#FCFCFC" stroke-width="0.689267" stroke-linecap="round" stroke-linejoin="round"/>
</svg>
